<svg width="427" height="138" viewBox="0 0 427 138" fill="none" xmlns="http://www.w3.org/2000/svg">
<path d="M58.42 115.45C56.82 115.45 55.55 114.77 54.61 113.41C53.67 112.05 53.2 110.2 53.2 107.86C53.2 105.02 53.92 102.86 55.36 101.38C56.8 99.88 58.87 99.13 61.57 99.13C63.09 99.13 64.87 99.37 66.91 99.85V115H62.89L62.98 112.54H62.86C62.34 113.48 61.7 114.2 60.94 114.7C60.2 115.2 59.36 115.45 58.42 115.45ZM59.32 111.76C59.94 111.76 60.55 111.43 61.15 110.77C61.75 110.11 62.31 109.23 62.83 108.13V103.09C62.19 102.91 61.55 102.82 60.91 102.82C59.71 102.82 58.8 103.23 58.18 104.05C57.58 104.87 57.28 106.08 57.28 107.68C57.28 108.94 57.46 109.94 57.82 110.68C58.18 111.4 58.68 111.76 59.32 111.76ZM77.9957 115.45C75.4357 115.45 73.4457 114.77 72.0257 113.41C70.6257 112.05 69.9257 110.13 69.9257 107.65C69.9257 105.97 70.2557 104.49 70.9157 103.21C71.5757 101.91 72.5057 100.91 73.7057 100.21C74.9057 99.49 76.2957 99.13 77.8757 99.13C78.6157 99.13 79.3857 99.22 80.1857 99.4C81.0057 99.56 81.6357 99.75 82.0757 99.97L81.2657 103.54C80.8057 103.32 80.2957 103.15 79.7357 103.03C79.1957 102.89 78.6857 102.82 78.2057 102.82C76.9657 102.82 75.9657 103.24 75.2057 104.08C74.4657 104.92 74.0957 106.03 74.0957 107.41C74.0957 108.81 74.4757 109.89 75.2357 110.65C76.0157 111.41 77.1157 111.79 78.5357 111.79C79.4757 111.79 80.4857 111.61 81.5657 111.25L82.1957 114.67C80.8957 115.19 79.4957 115.45 77.9957 115.45ZM92.2633 115.45C89.7033 115.45 87.7133 114.77 86.2933 113.41C84.8933 112.05 84.1933 110.13 84.1933 107.65C84.1933 105.97 84.5233 104.49 85.1833 103.21C85.8433 101.91 86.7733 100.91 87.9733 100.21C89.1733 99.49 90.5633 99.13 92.1433 99.13C92.8833 99.13 93.6533 99.22 94.4533 99.4C95.2733 99.56 95.9033 99.75 96.3433 99.97L95.5333 103.54C95.0733 103.32 94.5633 103.15 94.0033 103.03C93.4633 102.89 92.9533 102.82 92.4733 102.82C91.2333 102.82 90.2333 103.24 89.4733 104.08C88.7333 104.92 88.3633 106.03 88.3633 107.41C88.3633 108.81 88.7433 109.89 89.5033 110.65C90.2833 111.41 91.3833 111.79 92.8033 111.79C93.7433 111.79 94.7533 111.61 95.8333 111.25L96.4633 114.67C95.1633 115.19 93.7633 115.45 92.2633 115.45ZM106.621 115.45C104.121 115.45 102.151 114.73 100.711 113.29C99.2909 111.85 98.5809 109.85 98.5809 107.29C98.5809 105.63 98.8909 104.19 99.5109 102.97C100.131 101.73 101.001 100.78 102.121 100.12C103.261 99.46 104.591 99.13 106.111 99.13C108.351 99.13 110.071 99.85 111.271 101.29C112.471 102.73 113.071 104.81 113.071 107.53C113.071 107.99 113.061 108.33 113.041 108.55H102.841C103.041 109.61 103.501 110.42 104.221 110.98C104.941 111.52 105.911 111.79 107.131 111.79C107.871 111.79 108.641 111.7 109.441 111.52C110.241 111.32 110.941 111.06 111.541 110.74L112.231 114.13C111.431 114.55 110.541 114.87 109.561 115.09C108.601 115.33 107.621 115.45 106.621 115.45ZM109.021 105.37C108.961 104.51 108.661 103.83 108.121 103.33C107.581 102.81 106.861 102.55 105.961 102.55C105.101 102.55 104.391 102.8 103.831 103.3C103.291 103.8 102.951 104.49 102.811 105.37H109.021ZM120.705 115.45C119.725 115.45 118.775 115.35 117.855 115.15C116.955 114.95 116.185 114.68 115.545 114.34L115.935 110.74C116.615 111.16 117.365 111.5 118.185 111.76C119.005 112.02 119.775 112.15 120.495 112.15C121.175 112.15 121.745 112.03 122.205 111.79C122.665 111.53 122.895 111.16 122.895 110.68C122.895 110.3 122.735 110.01 122.415 109.81C122.095 109.59 121.485 109.32 120.585 109L119.775 108.7C118.915 108.38 118.215 108.08 117.675 107.8C117.135 107.5 116.645 107.05 116.205 106.45C115.765 105.85 115.545 105.06 115.545 104.08C115.545 102.52 116.125 101.31 117.285 100.45C118.465 99.57 119.995 99.13 121.875 99.13C123.355 99.13 124.915 99.42 126.555 100L125.985 103.57C125.405 103.23 124.745 102.96 124.005 102.76C123.285 102.54 122.605 102.43 121.965 102.43C121.305 102.43 120.775 102.54 120.375 102.76C119.995 102.98 119.805 103.3 119.805 103.72C119.805 104.12 119.965 104.42 120.285 104.62C120.605 104.82 121.145 105.05 121.905 105.31C122.505 105.53 122.855 105.66 122.955 105.7C123.795 106.04 124.495 106.37 125.055 106.69C125.615 107.01 126.105 107.49 126.525 108.13C126.945 108.75 127.155 109.55 127.155 110.53C127.155 112.17 126.565 113.4 125.385 114.22C124.205 115.04 122.645 115.45 120.705 115.45ZM134.621 115.45C133.641 115.45 132.691 115.35 131.771 115.15C130.871 114.95 130.101 114.68 129.461 114.34L129.851 110.74C130.531 111.16 131.281 111.5 132.101 111.76C132.921 112.02 133.691 112.15 134.411 112.15C135.091 112.15 135.661 112.03 136.121 111.79C136.581 111.53 136.811 111.16 136.811 110.68C136.811 110.3 136.651 110.01 136.331 109.81C136.011 109.59 135.401 109.32 134.501 109L133.691 108.7C132.831 108.38 132.131 108.08 131.591 107.8C131.051 107.5 130.561 107.05 130.121 106.45C129.681 105.85 129.461 105.06 129.461 104.08C129.461 102.52 130.041 101.31 131.201 100.45C132.381 99.57 133.911 99.13 135.791 99.13C137.271 99.13 138.831 99.42 140.471 100L139.901 103.57C139.321 103.23 138.661 102.96 137.921 102.76C137.201 102.54 136.521 102.43 135.881 102.43C135.221 102.43 134.691 102.54 134.291 102.76C133.911 102.98 133.721 103.3 133.721 103.72C133.721 104.12 133.881 104.42 134.201 104.62C134.521 104.82 135.061 105.05 135.821 105.31C136.421 105.53 136.771 105.66 136.871 105.7C137.711 106.04 138.411 106.37 138.971 106.69C139.531 107.01 140.021 107.49 140.441 108.13C140.861 108.75 141.071 109.55 141.071 110.53C141.071 112.17 140.481 113.4 139.301 114.22C138.121 115.04 136.561 115.45 134.621 115.45ZM145.867 93.1H150.697V97H145.867V93.1ZM143.527 111.37H146.407V103.18H143.527V99.55H150.637V111.37H153.217V115H143.527V111.37ZM161.69 115.45C160.09 115.45 158.2 115.21 156.02 114.73V93.1H160.19V101.05C161.37 99.77 162.82 99.13 164.54 99.13C166.3 99.13 167.68 99.8 168.68 101.14C169.68 102.46 170.18 104.31 170.18 106.69C170.18 109.53 169.45 111.7 167.99 113.2C166.53 114.7 164.43 115.45 161.69 115.45ZM162.14 111.76C163.38 111.76 164.32 111.35 164.96 110.53C165.62 109.71 165.95 108.51 165.95 106.93C165.95 105.63 165.73 104.62 165.29 103.9C164.87 103.18 164.27 102.82 163.49 102.82C162.85 102.82 162.25 103.05 161.69 103.51C161.13 103.95 160.63 104.6 160.19 105.46V111.49C160.81 111.67 161.46 111.76 162.14 111.76ZM174.988 93.1H179.818V97H174.988V93.1ZM172.648 111.37H175.528V103.18H172.648V99.55H179.758V111.37H182.338V115H172.648V111.37ZM184.451 111.37H187.181V96.7H184.601V93.1H191.411V111.37H194.141V115H184.451V111.37ZM198.719 93.1H203.549V97H198.719V93.1ZM196.379 111.37H199.259V103.18H196.379V99.55H203.489V111.37H206.069V115H196.379V111.37ZM214.102 115.45C212.662 115.45 211.542 115.09 210.742 114.37C209.962 113.63 209.572 112.59 209.572 111.25V103.18H207.172V99.55H209.572V96.25C210.992 96.01 212.392 95.83 213.772 95.71V99.55H217.672V103.18H213.772V110.47C213.772 110.89 213.892 111.21 214.132 111.43C214.392 111.65 214.752 111.76 215.212 111.76C215.772 111.76 216.412 111.63 217.132 111.37L218.062 114.55C216.782 115.15 215.462 115.45 214.102 115.45ZM223.63 121.72C222.71 121.72 221.75 121.5 220.75 121.06L221.38 117.58C222.14 117.96 222.78 118.15 223.3 118.15C223.92 118.15 224.38 117.95 224.68 117.55C225 117.15 225.34 116.45 225.7 115.45L219.67 99.61L224.05 99.25L227.74 110.32L231.16 99.55H235.33C234.05 103.43 232.7 107.25 231.28 111.01C229.88 114.77 228.79 117.35 228.01 118.75C227.45 119.75 226.82 120.49 226.12 120.97C225.44 121.47 224.61 121.72 223.63 121.72ZM251.536 110.5H242.806L242.506 107.41L251.506 95.02H255.466V107.14H257.776L257.476 110.5H255.466V115H251.536V110.5ZM251.536 107.14V100.24L246.856 107.14H251.536ZM266.202 115.45C264.462 115.45 263.092 114.79 262.092 113.47C261.112 112.13 260.622 110.27 260.622 107.89C260.622 105.07 261.352 102.91 262.812 101.41C264.292 99.89 266.392 99.13 269.112 99.13C269.452 99.13 269.962 99.15 270.642 99.19V93.1H274.812V115H270.702L270.792 112.99H270.672C270.152 113.79 269.512 114.4 268.752 114.82C268.012 115.24 267.162 115.45 266.202 115.45ZM267.162 111.76C267.802 111.76 268.422 111.49 269.022 110.95C269.622 110.39 270.162 109.6 270.642 108.58V103.09C269.962 102.91 269.312 102.82 268.692 102.82C267.432 102.82 266.472 103.23 265.812 104.05C265.172 104.87 264.852 106.07 264.852 107.65C264.852 108.93 265.052 109.94 265.452 110.68C265.872 111.4 266.442 111.76 267.162 111.76ZM285.976 115.45C283.476 115.45 281.506 114.73 280.066 113.29C278.646 111.85 277.936 109.85 277.936 107.29C277.936 105.63 278.246 104.19 278.866 102.97C279.486 101.73 280.356 100.78 281.476 100.12C282.616 99.46 283.946 99.13 285.466 99.13C287.706 99.13 289.426 99.85 290.626 101.29C291.826 102.73 292.426 104.81 292.426 107.53C292.426 107.99 292.416 108.33 292.396 108.55H282.196C282.396 109.61 282.856 110.42 283.576 110.98C284.296 111.52 285.266 111.79 286.486 111.79C287.226 111.79 287.996 111.7 288.796 111.52C289.596 111.32 290.296 111.06 290.896 110.74L291.586 114.13C290.786 114.55 289.896 114.87 288.916 115.09C287.956 115.33 286.976 115.45 285.976 115.45ZM288.376 105.37C288.316 104.51 288.016 103.83 287.476 103.33C286.936 102.81 286.216 102.55 285.316 102.55C284.456 102.55 283.746 102.8 283.186 103.3C282.646 103.8 282.306 104.49 282.166 105.37H288.376ZM293.791 99.61L298.411 99.19L301.831 110.32L305.101 99.55H309.631L304.201 115H299.251L293.791 99.61ZM316.32 115.45C315.34 115.45 314.39 115.35 313.47 115.15C312.57 114.95 311.8 114.68 311.16 114.34L311.55 110.74C312.23 111.16 312.98 111.5 313.8 111.76C314.62 112.02 315.39 112.15 316.11 112.15C316.79 112.15 317.36 112.03 317.82 111.79C318.28 111.53 318.51 111.16 318.51 110.68C318.51 110.3 318.35 110.01 318.03 109.81C317.71 109.59 317.1 109.32 316.2 109L315.39 108.7C314.53 108.38 313.83 108.08 313.29 107.8C312.75 107.5 312.26 107.05 311.82 106.45C311.38 105.85 311.16 105.06 311.16 104.08C311.16 102.52 311.74 101.31 312.9 100.45C314.08 99.57 315.61 99.13 317.49 99.13C318.97 99.13 320.53 99.42 322.17 100L321.6 103.57C321.02 103.23 320.36 102.96 319.62 102.76C318.9 102.54 318.22 102.43 317.58 102.43C316.92 102.43 316.39 102.54 315.99 102.76C315.61 102.98 315.42 103.3 315.42 103.72C315.42 104.12 315.58 104.42 315.9 104.62C316.22 104.82 316.76 105.05 317.52 105.31C318.12 105.53 318.47 105.66 318.57 105.7C319.41 106.04 320.11 106.37 320.67 106.69C321.23 107.01 321.72 107.49 322.14 108.13C322.56 108.75 322.77 109.55 322.77 110.53C322.77 112.17 322.18 113.4 321 114.22C319.82 115.04 318.26 115.45 316.32 115.45Z" fill="black"/>
<path d="M56.55 34.71H71.045C75.2483 34.71 78.5633 35.7283 80.99 37.765C83.46 39.7583 84.695 42.4883 84.695 45.955C84.695 49.8983 82.9833 52.9317 79.56 55.055C84.11 56.875 86.385 60.0817 86.385 64.675C86.385 67.275 85.735 69.5933 84.435 71.63C83.135 73.6233 81.315 75.1833 78.975 76.31C76.6783 77.4367 74.0783 78 71.175 78H56.55V34.71ZM68.835 52.325C71.0017 52.325 72.67 51.8267 73.84 50.83C75.0533 49.8333 75.66 48.4467 75.66 46.67C75.66 43.4633 73.6667 41.86 69.68 41.86H65.585V52.325H68.835ZM69.745 70.785C72.085 70.785 73.905 70.2433 75.205 69.16C76.5483 68.0767 77.22 66.625 77.22 64.805C77.22 63.1583 76.6567 61.88 75.53 60.97C74.4033 60.06 72.7783 59.605 70.655 59.605H65.585V70.785H69.745ZM108.702 78.975C105.322 78.975 102.332 78.2383 99.7318 76.765C97.1752 75.2917 95.1818 73.2333 93.7518 70.59C92.3218 67.9033 91.6068 64.805 91.6068 61.295C91.6068 57.785 92.3002 54.7083 93.6868 52.065C95.1168 49.3783 97.1102 47.2983 99.6668 45.825C102.267 44.3517 105.257 43.615 108.637 43.615C112.017 43.615 114.985 44.3517 117.542 45.825C120.142 47.255 122.135 49.2917 123.522 51.935C124.952 54.5783 125.667 57.6333 125.667 61.1C125.667 64.61 124.952 67.73 123.522 70.46C122.135 73.1467 120.142 75.2483 117.542 76.765C114.985 78.2383 112.039 78.975 108.702 78.975ZM108.637 71.045C110.977 71.045 112.84 70.1567 114.227 68.38C115.657 66.56 116.372 64.1767 116.372 61.23C116.372 58.2833 115.657 55.9433 114.227 54.21C112.84 52.4333 110.977 51.545 108.637 51.545C106.297 51.545 104.412 52.4333 102.982 54.21C101.595 55.9433 100.902 58.2833 100.902 61.23C100.902 64.1767 101.595 66.56 102.982 68.38C104.412 70.1567 106.297 71.045 108.637 71.045ZM148.248 78.975C144.868 78.975 141.878 78.2383 139.278 76.765C136.721 75.2917 134.728 73.2333 133.298 70.59C131.868 67.9033 131.153 64.805 131.153 61.295C131.153 57.785 131.846 54.7083 133.233 52.065C134.663 49.3783 136.656 47.2983 139.213 45.825C141.813 44.3517 144.803 43.615 148.183 43.615C151.563 43.615 154.531 44.3517 157.088 45.825C159.688 47.255 161.681 49.2917 163.068 51.935C164.498 54.5783 165.213 57.6333 165.213 61.1C165.213 64.61 164.498 67.73 163.068 70.46C161.681 73.1467 159.688 75.2483 157.088 76.765C154.531 78.2383 151.584 78.975 148.248 78.975ZM148.183 71.045C150.523 71.045 152.386 70.1567 153.773 68.38C155.203 66.56 155.918 64.1767 155.918 61.23C155.918 58.2833 155.203 55.9433 153.773 54.21C152.386 52.4333 150.523 51.545 148.183 51.545C145.843 51.545 143.958 52.4333 142.528 54.21C141.141 55.9433 140.448 58.2833 140.448 61.23C140.448 64.1767 141.141 66.56 142.528 68.38C143.958 70.1567 145.843 71.045 148.183 71.045ZM184.291 78.975C181.171 78.975 178.745 78.195 177.011 76.635C175.321 75.0317 174.476 72.7783 174.476 69.875V52.39H169.276V44.525H174.476V37.375C177.553 36.855 180.586 36.465 183.576 36.205V44.525H192.026V52.39H183.576V68.185C183.576 69.095 183.836 69.7883 184.356 70.265C184.92 70.7417 185.7 70.98 186.696 70.98C187.91 70.98 189.296 70.6983 190.856 70.135L192.871 77.025C190.098 78.325 187.238 78.975 184.291 78.975ZM209.05 78.975C206.926 78.975 204.868 78.7583 202.875 78.325C200.925 77.8917 199.256 77.3067 197.87 76.57L198.715 68.77C200.188 69.68 201.813 70.4167 203.59 70.98C205.366 71.5433 207.035 71.825 208.595 71.825C210.068 71.825 211.303 71.565 212.3 71.045C213.296 70.4817 213.795 69.68 213.795 68.64C213.795 67.8167 213.448 67.1883 212.755 66.755C212.061 66.2783 210.74 65.6933 208.79 65L207.035 64.35C205.171 63.6567 203.655 63.0067 202.485 62.4C201.315 61.75 200.253 60.775 199.3 59.475C198.346 58.175 197.87 56.4633 197.87 54.34C197.87 50.96 199.126 48.3383 201.64 46.475C204.196 44.5683 207.511 43.615 211.585 43.615C214.791 43.615 218.171 44.2433 221.725 45.5L220.49 53.235C219.233 52.4983 217.803 51.9133 216.2 51.48C214.64 51.0033 213.166 50.765 211.78 50.765C210.35 50.765 209.201 51.0033 208.335 51.48C207.511 51.9567 207.1 52.65 207.1 53.56C207.1 54.4267 207.446 55.0767 208.14 55.51C208.833 55.9433 210.003 56.4417 211.65 57.005C212.95 57.4817 213.708 57.7633 213.925 57.85C215.745 58.5867 217.261 59.3017 218.475 59.995C219.688 60.6883 220.75 61.7283 221.66 63.115C222.57 64.4583 223.025 66.1917 223.025 68.315C223.025 71.8683 221.746 74.5333 219.19 76.31C216.633 78.0867 213.253 78.975 209.05 78.975ZM230.158 34.71H239.648V51.48H258.043V34.71H267.598V78H258.043V59.54H239.648V78H230.158V34.71ZM286.047 78.975C282.58 78.975 279.828 77.5017 277.792 74.555C275.755 71.6083 274.737 67.6 274.737 62.53C274.737 56.3767 276.297 51.6967 279.417 48.49C282.537 45.24 287.022 43.615 292.872 43.615C296.165 43.615 300.022 44.135 304.442 45.175V78H295.732L295.927 72.67H295.667C294.54 74.7067 293.153 76.2667 291.507 77.35C289.903 78.4333 288.083 78.975 286.047 78.975ZM287.997 70.98C289.34 70.98 290.662 70.265 291.962 68.835C293.262 67.405 294.475 65.4983 295.602 63.115V52.195C294.215 51.805 292.828 51.61 291.442 51.61C288.842 51.61 286.87 52.4983 285.527 54.275C284.227 56.0517 283.577 58.6733 283.577 62.14C283.577 64.87 283.967 67.0367 284.747 68.64C285.527 70.2 286.61 70.98 287.997 70.98ZM328.461 78.975C322.914 78.975 318.602 77.5017 315.526 74.555C312.492 71.6083 310.976 67.4483 310.976 62.075C310.976 58.435 311.691 55.2283 313.121 52.455C314.551 49.6383 316.566 47.4717 319.166 45.955C321.766 44.395 324.777 43.615 328.201 43.615C329.804 43.615 331.472 43.81 333.206 44.2C334.982 44.5467 336.347 44.9583 337.301 45.435L335.546 53.17C334.549 52.6933 333.444 52.325 332.231 52.065C331.061 51.7617 329.956 51.61 328.916 51.61C326.229 51.61 324.062 52.52 322.416 54.34C320.812 56.16 320.011 58.565 320.011 61.555C320.011 64.5883 320.834 66.9283 322.481 68.575C324.171 70.2217 326.554 71.045 329.631 71.045C331.667 71.045 333.856 70.655 336.196 69.875L337.561 77.285C334.744 78.4117 331.711 78.975 328.461 78.975ZM353.256 63.44V78H344.091V30.485H353.256V56.745L363.721 44.525H374.576L361.186 59.54L375.291 77.61L365.346 78.975L353.256 63.44Z" fill="black"/>
<path d="M23.875 55.5L23.1679 54.7929L22.4608 55.5L23.1679 56.2071L23.875 55.5ZM34.4179 43.5429L23.1679 54.7929L24.5821 56.2071L35.8321 44.9571L34.4179 43.5429ZM23.1679 56.2071L34.4179 67.4571L35.8321 66.0429L24.5821 54.7929L23.1679 56.2071Z" fill="#333333"/>
<path d="M404.125 55.5L404.832 54.7929L405.539 55.5L404.832 56.2071L404.125 55.5ZM393.582 43.5429L404.832 54.7929L403.418 56.2071L392.168 44.9571L393.582 43.5429ZM404.832 56.2071L393.582 67.4571L392.168 66.0429L403.418 54.7929L404.832 56.2071Z" fill="#333333"/>
</svg>
